<?xml version="1.0" standalone="no"?>
<!DOCTYPE svg PUBLIC "-//W3C//DTD SVG 20010904//EN"
 "http://www.w3.org/TR/2001/REC-SVG-20010904/DTD/svg10.dtd">
<svg version="1.0" xmlns="http://www.w3.org/2000/svg"
 width="500.000000pt" height="500.000000pt" viewBox="0 0 500.000000 500.000000"
 preserveAspectRatio="xMidYMid meet">

<g transform="translate(0.000000,500.000000) scale(0.100000,-0.100000)"
fill="#000000" stroke="none">
<path d="M2385 4924 c-437 -31 -788 -138 -1135 -347 -304 -182 -588 -457 -783
-754 -417 -639 -506 -1433 -243 -2158 245 -673 817 -1226 1511 -1460 527 -177
1128 -161 1646 45 850 339 1433 1110 1524 2015 29 290 2 599 -76 885 -257 933
-1068 1637 -2024 1755 -119 15 -339 25 -420 19z m-252 -1060 c58 -15 152 -58
191 -86 16 -12 31 -12 110 4 139 28 305 32 622 17 396 -19 636 -16 794 10 68
11 128 17 132 13 27 -27 -60 -98 -170 -141 -119 -45 -206 -55 -425 -48 -195 7
-276 16 -562 62 -88 14 -224 28 -303 32 l-143 6 35 -52 c125 -185 104 -460
-55 -721 -69 -114 -235 -279 -339 -337 -262 -147 -528 -134 -625 31 -136 232
66 684 403 904 101 66 209 113 357 155 61 18 112 36 115 41 8 13 -77 53 -150
72 -87 22 -247 15 -345 -16 -161 -51 -328 -163 -426 -287 -68 -86 -145 -212
-179 -295 -13 -33 -30 -58 -38 -58 -19 0 -10 36 34 130 165 350 482 577 813
579 55 1 118 -5 154 -15z m1127 -284 c0 -5 -35 -28 -77 -52 -98 -53 -133 -85
-204 -181 -81 -109 -147 -218 -289 -477 -187 -342 -269 -468 -408 -625 -167
-189 -387 -336 -590 -397 -87 -25 -252 -35 -323 -18 -116 27 -205 99 -229 185
-15 54 -8 86 29 128 26 29 35 32 84 32 91 0 127 -59 92 -150 -38 -102 23 -165
158 -165 244 1 465 146 664 437 77 111 104 157 221 373 174 321 340 547 517
703 168 148 355 257 355 207z m-152 -719 c175 -46 301 -148 355 -285 27 -67
29 -199 5 -276 -83 -266 -412 -493 -692 -478 -252 13 -375 214 -266 435 53
107 243 294 271 266 8 -8 3 -18 -17 -34 -83 -67 -191 -188 -218 -243 -53 -111
-45 -224 21 -297 61 -68 103 -84 213 -84 89 0 100 3 171 37 121 59 215 163
285 313 45 97 64 182 64 285 0 252 -126 375 -324 315 -59 -18 -128 -19 -144
-3 -19 19 -14 54 11 67 31 16 174 6 265 -18z m-1409 -1616 c13 -13 13 -19 3
-35 -10 -16 -10 -24 0 -40 21 -32 -1 -54 -56 -58 l-46 -3 0 74 c0 40 3 77 8
81 11 12 74 -1 91 -19z m795 19 c28 -11 17 -20 -18 -16 -44 5 -71 -30 -61 -78
7 -34 30 -50 71 -50 37 0 24 -11 -15 -12 -46 -1 -71 26 -71 78 0 34 5 47 26
63 28 22 42 25 68 15z m56 -74 c0 -47 -4 -80 -10 -80 -6 0 -10 33 -10 80 0 47
4 80 10 80 6 0 10 -33 10 -80z m430 70 c11 -7 6 -10 -22 -10 -45 0 -68 -21
-68 -62 0 -41 25 -68 64 -69 25 0 27 -2 12 -8 -66 -26 -122 53 -85 120 17 33
70 48 99 29z m170 -6 c0 -8 -5 -12 -10 -9 -6 4 -8 11 -5 16 9 14 15 11 15 -7z
m-1280 -14 c0 -5 7 -10 15 -10 8 0 15 -4 15 -10 0 -5 -7 -10 -15 -10 -11 0
-15 -12 -15 -45 0 -36 4 -45 17 -45 13 0 14 -3 5 -12 -20 -20 -42 10 -42 58 0
24 -5 44 -10 44 -6 0 -5 8 2 20 14 21 28 27 28 10z m-62 -22 c7 -7 12 -33 12
-59 0 -44 -1 -47 -30 -51 -64 -10 -83 49 -22 67 42 12 42 35 0 35 -25 0 -29 3
-18 10 20 13 44 12 58 -2z m180 0 c7 -7 12 -34 12 -62 0 -27 -3 -47 -6 -43 -3
3 -16 2 -29 -3 -15 -6 -29 -5 -40 4 -26 19 -15 50 23 61 42 12 42 35 0 35 -25
0 -29 3 -18 10 20 13 44 12 58 -2z m113 2 c11 -6 19 -21 19 -35 0 -22 -4 -25
-40 -25 -22 0 -40 -4 -40 -9 0 -17 30 -33 55 -29 31 6 34 -7 3 -15 -43 -12
-84 32 -72 78 10 39 40 53 75 35z m60 -37 l21 -48 16 42 c20 49 38 69 29 32
-10 -41 -37 -99 -46 -99 -7 0 -51 100 -51 116 0 16 14 -3 31 -43z m154 37 c4
-6 -7 -10 -24 -10 -40 0 -40 -22 -1 -37 55 -21 25 -80 -32 -65 -30 7 -20 19
12 14 23 -3 30 0 30 12 0 8 -13 22 -30 31 -31 16 -41 49 -17 58 21 9 56 7 62
-3z m339 -6 c10 -9 16 -33 16 -58 l0 -43 -44 -1 c-36 -2 -45 1 -49 18 -6 23
25 50 56 50 29 0 14 25 -16 28 -15 2 -25 8 -22 13 9 14 42 11 59 -7z m123 5
c15 -13 18 -109 3 -109 -5 0 -10 23 -10 50 0 47 -2 50 -25 50 -25 0 -30 -9
-38 -75 -2 -16 -5 -3 -5 30 l-2 60 32 2 c17 1 38 -2 45 -8z m313 -9 c40 -40
19 -100 -36 -100 -28 0 -36 5 -44 26 -6 14 -10 32 -10 40 0 19 36 54 55 54 8
0 24 -9 35 -20z m60 -40 c0 -33 -4 -60 -10 -60 -11 0 -14 103 -3 113 12 12 13
8 13 -53z m117 49 c15 -13 18 -109 3 -109 -5 0 -10 23 -10 51 0 49 -1 50 -27
47 -26 -3 -28 -7 -31 -50 -2 -27 -7 -48 -13 -48 -9 0 -13 102 -5 111 10 9 71
8 83 -2z"/>
<path d="M2190 3695 c-475 -131 -780 -468 -783 -865 -1 -142 46 -213 160 -246
151 -44 333 28 508 201 144 143 259 332 306 501 38 138 24 312 -31 402 -24 39
-41 40 -160 7z"/>
<path d="M1620 1225 c0 -21 5 -25 30 -25 19 0 33 6 37 16 7 19 -13 34 -44 34
-18 0 -23 -6 -23 -25z"/>
<path d="M1620 1151 c0 -26 4 -31 23 -31 57 1 66 53 9 58 -30 3 -32 1 -32 -27z"/>
<path d="M1750 1139 c0 -15 5 -20 22 -17 34 5 37 38 4 38 -20 0 -26 -5 -26
-21z"/>
<path d="M1930 1139 c0 -15 5 -20 22 -17 34 5 37 38 4 38 -20 0 -26 -5 -26
-21z"/>
<path d="M2046 1195 c-4 -11 2 -15 24 -15 20 0 30 5 30 15 0 9 -9 15 -24 15
-13 0 -26 -7 -30 -15z"/>
<path d="M2594 1149 c-3 -6 -1 -16 5 -22 13 -13 42 0 49 21 5 15 -44 16 -54 1z"/>
<path d="M3027 1204 c-13 -13 -7 -61 9 -75 24 -20 49 1 49 42 0 29 -4 34 -25
37 -14 2 -29 0 -33 -4z"/>
</g>
</svg>
